<?xml version="1.0" encoding="utf-8"?>
<!-- Generator: Adobe Illustrator 25.0.1, SVG Export Plug-In . SVG Version: 6.00 Build 0)  -->
<svg version="1.1" id="Lager_1" xmlns="http://www.w3.org/2000/svg" xmlns:xlink="http://www.w3.org/1999/xlink" x="0px" y="0px"
	 viewBox="0 0 800 457.4" style="enable-background:new 0 0 800 457.4;" xml:space="preserve">
<style type="text/css">
	.st0{fill:#999999;}
	.st1{fill:#404040;}
	.st2{fill:#B3E3FF;stroke:#404040;stroke-width:4;stroke-linejoin:round;stroke-miterlimit:10;}
	.st3{fill:none;stroke:#404040;stroke-width:4;stroke-linecap:round;stroke-linejoin:round;stroke-miterlimit:10;}
	.st4{fill:#B18BE8;stroke:#404040;stroke-width:4;stroke-linecap:round;stroke-linejoin:round;stroke-miterlimit:10;}
	.st5{fill:#FFFFFF;stroke:#404040;stroke-width:4;stroke-linecap:round;stroke-linejoin:round;stroke-miterlimit:10;}
</style>
<path class="st0" d="M344.4,17.8V9.5l-3.6,8.3h-1.3l-3.6-8.3v8.3h-1.5V7.1h2l3.7,8.7l3.8-8.7h2v10.6L344.4,17.8L344.4,17.8z
	 M350.8,13.6l1.9-0.3c0.4-0.1,0.6-0.3,0.6-0.5c0-0.7-0.5-1.3-1.6-1.3c-1,0-1.5,0.6-1.6,1.5l-1.4-0.3c0.2-1.4,1.4-2.3,3-2.3
	c2.2,0,3,1.2,3,2.6v3.6c0,0.6,0.1,1,0.1,1.2h-1.4c0-0.2-0.1-0.5-0.1-1c-0.3,0.5-1,1.2-2.3,1.2c-1.5,0-2.4-1-2.4-2.2
	C348.7,14.5,349.6,13.8,350.8,13.6L350.8,13.6z M353.4,14.7v-0.3l-2.2,0.3c-0.6,0.1-1,0.4-1,1.1c0,0.5,0.4,1,1.2,1
	C352.4,16.8,353.4,16.2,353.4,14.7z M361.7,12h-0.6c-1.2,0-2,0.6-2,2.2v3.6h-1.4v-7.2h1.4v1.3c0.5-1.1,1.4-1.4,2.2-1.4h0.5V12H361.7
	z M364.4,20.8l1.8-3.8l-3.1-6.4h1.6l2.2,5l2.2-5h1.5L366,20.8H364.4z M373.2,7c0.6,0,1.1,0.5,1.1,1.3c0,1.9-1.2,2.6-2.1,2.7v-0.7
	c0.7-0.2,1.1-0.8,1.2-1.5c0,0-0.2,0.1-0.3,0.1c-0.5,0-0.9-0.4-0.9-1C372.2,7.4,372.6,7,373.2,7L373.2,7z M376.7,15.4
	c0.1,0.8,0.7,1.3,1.7,1.3c0.8,0,1.2-0.4,1.2-1c0-0.5-0.3-0.8-0.9-0.9l-1.2-0.3c-1.1-0.2-1.8-1-1.8-2c0-1.2,1.2-2.3,2.6-2.3
	c2,0,2.6,1.3,2.7,1.9l-1.2,0.5c-0.1-0.4-0.4-1.2-1.5-1.2c-0.7,0-1.2,0.5-1.2,1c0,0.4,0.3,0.8,0.8,0.9l1.2,0.3c1.3,0.3,2,1.1,2,2.1
	s-0.9,2.2-2.6,2.2c-2,0-2.8-1.3-2.9-2.1L376.7,15.4L376.7,15.4z M391.3,13.4h-1.6v4.3h-1.5V7.1h4c2,0,3.3,1.4,3.3,3.2
	c0,1.5-1,2.7-2.6,3l2.5,4.5h-1.7L391.3,13.4L391.3,13.4z M392,12.1c1.2,0,2-0.7,2-1.8s-0.8-1.8-2-1.8h-2.2v3.6H392z M404.1,15.7
	c-0.4,1.3-1.6,2.3-3.2,2.3c-1.9,0-3.6-1.4-3.6-3.9c0-2.3,1.6-3.8,3.4-3.8c2.2,0,3.5,1.5,3.5,3.8v0.4h-5.4c0,1.3,1,2.2,2.2,2.2
	s1.8-0.6,2-1.5L404.1,15.7z M402.7,13.4c0-1-0.7-1.8-2-1.8c-1.2,0-1.9,0.9-2,1.8H402.7z M406.7,20.6V10.5h1.4v1.1
	c0.4-0.7,1.2-1.3,2.4-1.3c2.2,0,3.3,1.7,3.3,3.8s-1.2,3.8-3.4,3.8c-1.1,0-1.9-0.5-2.3-1.2v3.8h-1.4V20.6z M410.2,11.6
	c-1.3,0-2.1,1.1-2.1,2.5c0,1.5,0.9,2.5,2.1,2.5c1.3,0,2.1-1.1,2.1-2.5C412.4,12.7,411.6,11.6,410.2,11.6z M423.1,14.1
	c0,2.2-1.5,3.8-3.7,3.8s-3.7-1.6-3.7-3.8s1.5-3.8,3.7-3.8S423.1,12,423.1,14.1z M421.7,14.1c0-1.7-1.1-2.6-2.2-2.6s-2.2,0.9-2.2,2.6
	s1.1,2.6,2.2,2.6S421.7,15.8,421.7,14.1z M426.3,15.4c0.1,0.8,0.7,1.3,1.7,1.3c0.8,0,1.2-0.4,1.2-1c0-0.5-0.3-0.8-0.9-0.9l-1.2-0.3
	c-1.1-0.2-1.8-1-1.8-2c0-1.2,1.2-2.3,2.6-2.3c2,0,2.6,1.3,2.7,1.9l-1.2,0.5c-0.1-0.4-0.4-1.2-1.5-1.2c-0.7,0-1.2,0.5-1.2,1
	c0,0.4,0.3,0.8,0.8,0.9l1.2,0.3c1.3,0.3,2,1.1,2,2.1s-0.9,2.2-2.6,2.2c-2,0-2.8-1.3-2.9-2.1L426.3,15.4L426.3,15.4z M433.9,6.8
	c0.6,0,1,0.4,1,1s-0.4,1-1,1s-1-0.5-1-1C432.9,7.2,433.3,6.8,433.9,6.8z M433.2,17.8v-7.2h1.4v7.2H433.2z M439.6,10.5h1.6v1.3h-1.6
	v3.8c0,0.7,0.3,1,1,1c0.2,0,0.4,0,0.6-0.1v1.2c-0.1,0-0.5,0.1-1,0.1c-1.2,0-2-0.8-2-2.1v-4h-1.4v-1.3h0.4c0.8,0,1.1-0.5,1.1-1.1v-1
	h1.3V10.5z M450.5,14.1c0,2.2-1.5,3.8-3.7,3.8s-3.7-1.6-3.7-3.8s1.5-3.8,3.7-3.8S450.5,12,450.5,14.1z M449.1,14.1
	c0-1.7-1.1-2.6-2.2-2.6s-2.2,0.9-2.2,2.6s1,2.6,2.2,2.6S449.1,15.8,449.1,14.1z M457.1,12h-0.6c-1.2,0-2,0.6-2,2.2v3.6h-1.4v-7.2
	h1.4v1.3c0.5-1.1,1.4-1.4,2.2-1.4h0.5V12H457.1z M459.8,20.8l1.8-3.8l-3.1-6.4h1.6l2.2,5l2.2-5h1.5l-4.7,10.2H459.8z"/>
<path class="st1" d="M570.5,203.8v4.3H569v-10.6h3.9c2,0,3.3,1.4,3.3,3.1c0,1.8-1.3,3.1-3.3,3.1L570.5,203.8L570.5,203.8z
	 M572.6,202.4c1.3,0,2.1-0.7,2.1-1.8s-0.8-1.8-2.1-1.8h-2.1v3.6H572.6z M579.9,204l1.9-0.3c0.4-0.1,0.6-0.3,0.6-0.5
	c0-0.7-0.5-1.3-1.6-1.3c-1,0-1.5,0.6-1.6,1.5l-1.4-0.3c0.2-1.4,1.4-2.3,3-2.3c2.2,0,3,1.2,3,2.6v3.6c0,0.6,0.1,1,0.1,1.2h-1.4
	c0-0.2-0.1-0.5-0.1-1c-0.3,0.5-1,1.2-2.3,1.2c-1.5,0-2.4-1-2.4-2.2C577.7,204.9,578.6,204.2,579.9,204z M582.4,205v-0.3l-2.2,0.3
	c-0.6,0.1-1,0.4-1,1.1c0,0.5,0.4,1,1.2,1C581.4,207.1,582.4,206.6,582.4,205z M589.2,208.3c-1.7,0-2.7-1.3-2.7-2.9v-4.5h1.4v4.3
	c0,1,0.4,1.9,1.6,1.9c1.1,0,1.7-0.8,1.7-1.8v-4.4h1.4v5.9c0,0.6,0,1.1,0.1,1.3h-1.4c0-0.2-0.1-0.6-0.1-0.9
	C590.9,208,590,208.3,589.2,208.3L589.2,208.3z M596.4,205.8c0.1,0.8,0.7,1.3,1.7,1.3c0.8,0,1.2-0.4,1.2-1c0-0.5-0.3-0.8-0.9-0.9
	l-1.2-0.3c-1.1-0.2-1.8-1-1.8-2c0-1.2,1.2-2.3,2.6-2.3c2,0,2.6,1.3,2.7,1.9l-1.2,0.5c-0.1-0.4-0.4-1.2-1.5-1.2c-0.7,0-1.2,0.5-1.2,1
	c0,0.4,0.3,0.8,0.8,0.9l1.2,0.3c1.3,0.3,2,1.1,2,2.1s-0.9,2.2-2.6,2.2c-2,0-2.8-1.3-2.9-2.1L596.4,205.8L596.4,205.8z M609.6,206.1
	c-0.4,1.3-1.6,2.3-3.2,2.3c-1.9,0-3.6-1.4-3.6-3.9c0-2.3,1.6-3.8,3.4-3.8c2.2,0,3.5,1.5,3.5,3.8v0.4h-5.4c0,1.3,1,2.2,2.2,2.2
	s1.8-0.6,2-1.5L609.6,206.1z M608.1,203.8c0-1-0.7-1.8-2-1.8c-1.2,0-1.9,0.9-2,1.8H608.1z M618.1,208.1h-1.4v-10.9h1.4v4.5
	c0.5-0.8,1.4-1.1,2.2-1.1c1.7,0,2.6,1.2,2.6,2.8v4.6h-1.4v-4.3c0-1-0.4-1.8-1.7-1.8c-1.1,0-1.6,0.8-1.7,1.9L618.1,208.1L618.1,208.1
	z M632.1,206.1c-0.4,1.3-1.6,2.3-3.2,2.3c-1.9,0-3.6-1.4-3.6-3.9c0-2.3,1.6-3.8,3.4-3.8c2.2,0,3.5,1.5,3.5,3.8v0.4h-5.4
	c0,1.3,1,2.2,2.2,2.2s1.8-0.6,2-1.5L632.1,206.1z M630.7,203.8c0-1-0.7-1.8-2-1.8c-1.2,0-1.9,0.9-2,1.8H630.7z M638.7,202.3h-0.6
	c-1.2,0-2,0.6-2,2.2v3.6h-1.4v-7.2h1.4v1.3c0.5-1.1,1.4-1.4,2.2-1.4h0.5v1.5L638.7,202.3z M647.2,206.1c-0.4,1.3-1.6,2.3-3.2,2.3
	c-1.9,0-3.6-1.4-3.6-3.9c0-2.3,1.6-3.8,3.4-3.8c2.2,0,3.5,1.5,3.5,3.8v0.4h-5.4c0,1.3,1,2.2,2.2,2.2s1.8-0.6,2-1.5L647.2,206.1z
	 M645.7,203.8c0-1-0.7-1.8-2-1.8c-1.2,0-1.9,0.9-2,1.8H645.7z M656.2,202.2v5.9h-1.5v-5.9h-1.3v-1.3h1.3v-1.2c0-1.6,1.1-2.5,2.4-2.5
	c0.5,0,0.8,0.1,0.8,0.2v1.3c-0.1,0-0.3-0.1-0.6-0.1c-0.5,0-1.1,0.2-1.1,1.2v1.1h1.7v1.3H656.2L656.2,202.2z M666.6,204.5
	c0,2.2-1.5,3.8-3.7,3.8s-3.7-1.6-3.7-3.8s1.5-3.8,3.7-3.8S666.6,202.3,666.6,204.5z M665.2,204.5c0-1.7-1.1-2.6-2.2-2.6
	s-2.2,0.9-2.2,2.6c0,1.7,1,2.6,2.2,2.6S665.2,206.2,665.2,204.5z M673.2,202.3h-0.6c-1.2,0-2,0.6-2,2.2v3.6h-1.4v-7.2h1.4v1.3
	c0.5-1.1,1.4-1.4,2.2-1.4h0.5v1.5L673.2,202.3z M559.1,226.1v-7.2h1.3v1c0.5-0.8,1.4-1.2,2.2-1.2c0.9,0,1.8,0.4,2.2,1.4
	c0.6-1,1.5-1.4,2.4-1.4c1.3,0,2.5,0.9,2.5,2.7v4.7h-1.4v-4.5c0-0.9-0.5-1.6-1.5-1.6s-1.7,0.8-1.7,1.8v4.4h-1.4v-4.5
	c0-0.9-0.4-1.6-1.5-1.6c-1,0-1.7,0.8-1.7,1.8v4.3L559.1,226.1L559.1,226.1z M579,224.1c-0.4,1.3-1.6,2.3-3.2,2.3
	c-1.9,0-3.6-1.4-3.6-3.9c0-2.3,1.6-3.8,3.4-3.8c2.2,0,3.5,1.5,3.5,3.8v0.4h-5.4c0,1.3,1,2.2,2.2,2.2s1.8-0.6,2-1.5L579,224.1z
	 M577.5,221.8c0-1-0.7-1.8-2-1.8c-1.2,0-1.9,0.9-2,1.8H577.5z M585.6,220.3H585c-1.2,0-2,0.6-2,2.2v3.6h-1.4v-7.2h1.4v1.3
	c0.5-1.1,1.4-1.4,2.2-1.4h0.5v1.5L585.6,220.3z M588.6,226.2c0.1,1,0.9,1.8,2,1.8c1.5,0,2.2-0.8,2.2-2.3v-1
	c-0.3,0.7-1.1,1.2-2.2,1.2c-1.9,0-3.3-1.5-3.3-3.5s1.3-3.5,3.3-3.5c1.1,0,1.9,0.4,2.2,1.1v-1h1.4v6.7c0,1.8-0.9,3.6-3.6,3.6
	c-1.8,0-3.1-1.1-3.3-2.7L588.6,226.2L588.6,226.2z M592.8,222.3c0-1.4-0.8-2.3-2.1-2.3c-1.2,0-2.1,0.9-2.1,2.3s0.8,2.3,2.1,2.3
	S592.8,223.7,592.8,222.3z M603.4,224.1c-0.4,1.3-1.6,2.3-3.2,2.3c-1.9,0-3.6-1.4-3.6-3.9c0-2.3,1.6-3.8,3.4-3.8
	c2.2,0,3.5,1.5,3.5,3.8v0.4H598c0,1.3,1,2.2,2.2,2.2s1.8-0.6,2-1.5L603.4,224.1L603.4,224.1z M602,221.8c0-1-0.7-1.8-2-1.8
	c-1.2,0-1.9,0.9-2,1.8H602z M614.5,220.3h-0.6c-1.2,0-2,0.6-2,2.2v3.6h-1.4v-7.2h1.4v1.3c0.5-1.1,1.4-1.4,2.2-1.4h0.5v1.5
	L614.5,220.3z M623,224.1c-0.4,1.3-1.6,2.3-3.2,2.3c-1.9,0-3.6-1.4-3.6-3.9c0-2.3,1.6-3.8,3.4-3.8c2.2,0,3.5,1.5,3.5,3.8v0.4h-5.4
	c0,1.3,1,2.2,2.2,2.2s1.8-0.6,2-1.5L623,224.1z M621.6,221.8c0-1-0.7-1.8-2-1.8c-1.2,0-1.9,0.9-2,1.8H621.6z M626.2,223.8
	c0.1,0.8,0.7,1.3,1.7,1.3c0.8,0,1.2-0.4,1.2-1c0-0.5-0.3-0.8-0.9-0.9L627,223c-1.1-0.2-1.8-1-1.8-2c0-1.2,1.2-2.3,2.6-2.3
	c2,0,2.6,1.3,2.7,1.9l-1.2,0.5c-0.1-0.4-0.4-1.2-1.5-1.2c-0.7,0-1.2,0.5-1.2,1c0,0.4,0.3,0.8,0.8,0.9l1.2,0.3c1.3,0.3,2,1.1,2,2.1
	s-0.9,2.2-2.6,2.2c-2,0-2.8-1.3-2.9-2.1L626.2,223.8L626.2,223.8z M639.8,222.5c0,2.2-1.5,3.8-3.7,3.8s-3.7-1.6-3.7-3.8
	s1.5-3.8,3.7-3.8S639.8,220.3,639.8,222.5z M638.4,222.5c0-1.7-1.1-2.6-2.2-2.6s-2.2,0.9-2.2,2.6c0,1.7,1,2.6,2.2,2.6
	S638.4,224.2,638.4,222.5z M642.4,226.1v-10.9h1.4v10.9H642.4z M649.5,226.3c-1.7,0-2.7-1.3-2.7-2.9v-4.5h1.4v4.3
	c0,1,0.4,1.9,1.6,1.9c1.1,0,1.7-0.8,1.7-1.8v-4.4h1.4v5.9c0,0.6,0,1.1,0.1,1.3h-1.4c0-0.2-0.1-0.6-0.1-0.9
	C651.2,226,650.3,226.3,649.5,226.3L649.5,226.3z M658,218.9h1.6v1.3H658v3.8c0,0.7,0.3,1,1,1c0.2,0,0.4,0,0.6-0.1v1.2
	c-0.1,0-0.5,0.1-1,0.1c-1.2,0-2-0.8-2-2.1v-4h-1.4v-1.3h0.4c0.8,0,1.1-0.5,1.1-1.1v-1.2h1.3L658,218.9L658,218.9z M662.9,215.1
	c0.6,0,1,0.4,1,1s-0.4,1-1,1s-1-0.5-1-1S662.3,215.1,662.9,215.1z M662.2,226.1v-7.2h1.4v7.2H662.2z M673.5,222.5
	c0,2.2-1.5,3.8-3.7,3.8s-3.7-1.6-3.7-3.8s1.5-3.8,3.7-3.8S673.5,220.3,673.5,222.5z M672.1,222.5c0-1.7-1.1-2.6-2.2-2.6
	s-2.2,0.9-2.2,2.6c0,1.7,1.1,2.6,2.2,2.6S672.1,224.2,672.1,222.5z M677.5,226.1h-1.4v-7.2h1.4v1c0.5-0.9,1.4-1.2,2.2-1.2
	c1.7,0,2.6,1.2,2.6,2.8v4.6h-1.4v-4.3c0-1-0.4-1.8-1.7-1.8c-1.1,0-1.7,0.9-1.7,2L677.5,226.1L677.5,226.1z"/>
<path class="st2" d="M572.5,399.8h96.2v50h-96.2V399.8z"/>
<path class="st3" d="M620.6,356.3v23.5 M609.7,365l10.9-10.9l10.8,10.9 M620.6,246.3v23.5 M116.6,229.6h333.5 M724.6,311.6h-83h41.2
	 M527.9,270.6c0-22.6-18.4-41-41-41H284.8 M527.9,270.6c0,22.6,18.4,41,41,41h30.7"/>
<circle class="st4" cx="429.1" cy="229.6" r="21"/>
<circle class="st4" cx="345.9" cy="229.6" r="21"/>
<circle class="st5" cx="262.7" cy="229.6" r="21"/>
<circle class="st5" cx="179.4" cy="229.6" r="21"/>
<circle class="st5" cx="96.2" cy="229.6" r="21"/>
<circle class="st5" cx="703.8" cy="311.6" r="21"/>
<circle class="st2" cx="620.6" cy="311.6" r="21"/>
<path class="st3" d="M429.1,184.6v-23.5 M440,175.9l-10.9,10.9l-10.8-10.9"/>
<path class="st4" d="M361.1,90.2h136v50h-136V90.2z"/>
<path class="st1" d="M391,110.4c2.7,0,5.3,2,5.3,5.5c0,3.6-2.7,5.5-5.3,5.5c-2.7,0-5.3-2-5.3-5.5C385.6,112.4,388.3,110.4,391,110.4
	z M391,120.1c2,0,3.8-1.4,3.8-4.2c0-2.8-1.9-4.2-3.8-4.2c-2,0-3.8,1.4-3.8,4.2C387.1,118.7,389,120.1,391,120.1z M402.9,115.4h-0.6
	c-1.2,0-2,0.6-2,2.2v3.6h-1.4V114h1.4v1.3c0.5-1.1,1.4-1.4,2.2-1.4h0.5v1.5H402.9z M405.9,110.3c0.6,0,1,0.5,1,1c0,0.6-0.4,1-1,1
	s-1-0.5-1-1C404.9,110.7,405.3,110.3,405.9,110.3z M405.2,121.2V114h1.4v7.2H405.2z M410.6,121.3c0.1,1,0.9,1.8,2,1.8
	c1.5,0,2.2-0.8,2.2-2.3v-1c-0.3,0.7-1.1,1.2-2.2,1.2c-1.9,0-3.3-1.5-3.3-3.5c0-1.9,1.3-3.5,3.3-3.5c1.1,0,1.9,0.4,2.2,1.1v-1h1.4
	v6.7c0,1.8-0.9,3.6-3.6,3.6c-1.8,0-3.1-1.1-3.3-2.7C409.3,121.7,410.6,121.3,410.6,121.3z M414.8,117.4c0-1.4-0.8-2.3-2.1-2.3
	c-1.2,0-2.1,0.9-2.1,2.3s0.8,2.3,2.1,2.3S414.8,118.8,414.8,117.4z M419.8,110.3c0.6,0,1,0.5,1,1c0,0.6-0.4,1-1,1s-1-0.5-1-1
	C418.8,110.7,419.3,110.3,419.8,110.3z M419.2,121.2V114h1.4v7.2H419.2z M425.1,121.2h-1.4V114h1.4v1c0.5-0.9,1.4-1.2,2.2-1.2
	c1.7,0,2.6,1.2,2.6,2.9v4.6h-1.4V117c0-1-0.4-1.8-1.7-1.8c-1.1,0-1.7,0.9-1.7,2V121.2z M433,121.2h-1.4l5.1-10.6h1.4L433,121.2z"/>
<g>
	<path d="M605.3,431v-10h2l2.4,7.1c0.2,0.7,0.4,1.2,0.5,1.5c0.1-0.4,0.3-0.9,0.5-1.6l2.4-7h1.8v10h-1.3v-8.4l-2.9,8.4h-1.2l-2.9-8.5
		v8.5H605.3z"/>
	<path d="M622.3,430.1c-0.5,0.4-0.9,0.7-1.3,0.8c-0.4,0.2-0.9,0.2-1.4,0.2c-0.8,0-1.4-0.2-1.8-0.6c-0.4-0.4-0.6-0.9-0.6-1.5
		c0-0.4,0.1-0.7,0.2-1c0.2-0.3,0.4-0.5,0.6-0.7c0.3-0.2,0.6-0.3,0.9-0.4c0.2-0.1,0.6-0.1,1.1-0.2c1-0.1,1.7-0.3,2.2-0.4
		c0-0.2,0-0.3,0-0.3c0-0.5-0.1-0.9-0.3-1.1c-0.3-0.3-0.8-0.4-1.4-0.4c-0.6,0-1,0.1-1.3,0.3c-0.3,0.2-0.5,0.6-0.6,1.1l-1.2-0.2
		c0.1-0.5,0.3-0.9,0.5-1.2c0.3-0.3,0.6-0.6,1.1-0.7c0.5-0.2,1-0.3,1.6-0.3s1.1,0.1,1.5,0.2s0.7,0.3,0.9,0.6c0.2,0.2,0.3,0.5,0.4,0.8
		c0,0.2,0.1,0.6,0.1,1.1v1.6c0,1.1,0,1.9,0.1,2.2c0.1,0.3,0.2,0.6,0.3,0.9h-1.3C622.4,430.8,622.3,430.5,622.3,430.1z M622.2,427.4
		c-0.4,0.2-1.1,0.3-2,0.5c-0.5,0.1-0.9,0.2-1.1,0.2c-0.2,0-0.4,0.2-0.5,0.4c-0.1,0.2-0.2,0.4-0.2,0.6c0,0.3,0.1,0.6,0.4,0.8
		c0.2,0.2,0.6,0.3,1.1,0.3s0.9-0.1,1.3-0.3c0.4-0.2,0.6-0.5,0.8-0.9c0.1-0.3,0.2-0.7,0.2-1.2V427.4z"/>
	<path d="M626,422.4V421h1.2v1.4H626z M626,431v-7.3h1.2v7.3H626z"/>
	<path d="M629.8,431v-7.3h1.1v1c0.5-0.8,1.3-1.2,2.3-1.2c0.4,0,0.8,0.1,1.2,0.2c0.4,0.2,0.6,0.4,0.8,0.6s0.3,0.6,0.4,0.9
		c0,0.2,0.1,0.6,0.1,1.2v4.5h-1.2v-4.4c0-0.5,0-0.9-0.1-1.1s-0.3-0.4-0.5-0.6c-0.2-0.1-0.5-0.2-0.9-0.2c-0.5,0-1,0.2-1.4,0.5
		s-0.6,1-0.6,1.9v4H629.8z"/>
</g>
<g>
	<path class="st1" d="M440.3,121.3v-10.5h2.1l2.5,7.5c0.2,0.7,0.4,1.3,0.5,1.6c0.1-0.4,0.3-0.9,0.5-1.7l2.5-7.4h1.9v10.5H449v-8.8
		l-3,8.8h-1.3l-3-8.9v8.9H440.3z"/>
	<path class="st1" d="M458.2,120.3c-0.5,0.4-0.9,0.7-1.4,0.8c-0.4,0.2-0.9,0.2-1.5,0.2c-0.8,0-1.5-0.2-1.9-0.6
		c-0.4-0.4-0.6-0.9-0.6-1.6c0-0.4,0.1-0.7,0.2-1.1c0.2-0.3,0.4-0.5,0.6-0.7c0.3-0.2,0.6-0.3,0.9-0.4c0.2-0.1,0.6-0.1,1.2-0.2
		c1.1-0.1,1.8-0.3,2.3-0.4c0-0.2,0-0.3,0-0.3c0-0.5-0.1-0.9-0.3-1.2c-0.3-0.3-0.8-0.4-1.5-0.4c-0.6,0-1.1,0.1-1.4,0.3
		c-0.3,0.2-0.5,0.6-0.6,1.2l-1.3-0.2c0.1-0.5,0.3-0.9,0.5-1.3c0.3-0.3,0.6-0.6,1.2-0.7c0.5-0.2,1.1-0.3,1.7-0.3s1.2,0.1,1.6,0.2
		c0.4,0.1,0.7,0.3,0.9,0.6c0.2,0.2,0.3,0.5,0.4,0.8c0,0.2,0.1,0.6,0.1,1.2v1.7c0,1.2,0,2,0.1,2.3c0.1,0.3,0.2,0.6,0.3,0.9h-1.4
		C458.3,121.1,458.2,120.8,458.2,120.3z M458.1,117.5c-0.4,0.2-1.2,0.3-2.1,0.5c-0.5,0.1-0.9,0.2-1.2,0.2s-0.4,0.2-0.5,0.4
		c-0.1,0.2-0.2,0.4-0.2,0.6c0,0.3,0.1,0.6,0.4,0.8c0.2,0.2,0.6,0.3,1.2,0.3c0.5,0,0.9-0.1,1.4-0.3c0.4-0.2,0.6-0.5,0.8-0.9
		c0.1-0.3,0.2-0.7,0.2-1.3L458.1,117.5L458.1,117.5z"/>
	<path class="st1" d="M462,112.3v-1.5h1.3v1.5H462z M462,121.3v-7.7h1.3v7.7H462z"/>
	<path class="st1" d="M466,121.3v-7.7h1.2v1.1c0.5-0.8,1.4-1.3,2.4-1.3c0.4,0,0.8,0.1,1.3,0.2c0.4,0.2,0.6,0.4,0.8,0.6
		c0.2,0.2,0.3,0.6,0.4,0.9c0,0.2,0.1,0.6,0.1,1.3v4.7H471v-4.6c0-0.5,0-0.9-0.1-1.2s-0.3-0.4-0.5-0.6c-0.2-0.1-0.5-0.2-0.9-0.2
		c-0.5,0-1.1,0.2-1.5,0.5c-0.4,0.3-0.6,1.1-0.6,2v4.2H466z"/>
</g>
</svg>
